<svg width="20" height="22" viewBox="0 0 20 22" fill="none" xmlns="http://www.w3.org/2000/svg">
<path d="M15 21.8002H4.99995C2.39995 21.8002 0.199951 19.7002 0.199951 17.0002V5.0002C0.199951 2.4002 2.29995 0.200195 4.99995 0.200195H15C17.6 0.200195 19.7999 2.3002 19.7999 5.0002V17.0002C19.7999 19.6002 17.6 21.8002 15 21.8002ZM4.99995 1.8002C3.19995 1.8002 1.79995 3.2002 1.79995 5.0002V17.0002C1.79995 18.8002 3.29995 20.2002 4.99995 20.2002H15C16.8 20.2002 18.2 18.7002 18.2 17.0002V5.0002C18.2 3.2002 16.7 1.8002 15 1.8002H4.99995Z" fill="black"/>
<path d="M5.99995 15.2002C5.59995 15.2002 5.19995 15.5002 5.19995 16.0002C5.19995 16.5002 5.49995 16.8002 5.99995 16.8002V15.2002ZM9.99995 16.8002C10.4 16.8002 10.8 16.5002 10.8 16.0002C10.8 15.5002 10.5 15.2002 9.99995 15.2002V16.8002ZM5.99995 16.8002H9.99995V15.3002H5.99995V16.8002ZM5.99995 10.2002C5.59995 10.2002 5.19995 10.5002 5.19995 11.0002C5.19995 11.5002 5.49995 11.8002 5.99995 11.8002V10.2002ZM14 11.8002C14.4 11.8002 14.8 11.5002 14.8 11.0002C14.8 10.5002 14.5 10.2002 14 10.2002V11.8002ZM5.99995 11.8002H14V10.3002H5.99995V11.8002ZM5.99995 5.2002C5.59995 5.2002 5.19995 5.6002 5.19995 6.0002C5.19995 6.4002 5.59995 6.8002 5.99995 6.8002V5.2002ZM14 6.8002C14.4 6.8002 14.8 6.5002 14.8 6.0002C14.8 5.5002 14.4 5.2002 14 5.2002V6.8002ZM5.99995 6.8002H14V5.2002H5.99995V6.8002Z" fill="black"/>
</svg>
