<svg width="18" height="18" viewBox="0 0 18 18" fill="none" xmlns="http://www.w3.org/2000/svg">
<path fill-rule="evenodd" clip-rule="evenodd" d="M9.00326 2.33317C7.8684 2.33278 6.75223 2.6221 5.76045 3.17372C4.76868 3.72535 3.93414 4.52103 3.33588 5.48539C2.73762 6.44975 2.39544 7.55087 2.34175 8.68446C2.28807 9.81806 2.52465 10.9466 3.0291 11.9632C3.27243 12.4532 3.26076 13.0523 3.2091 13.5182C3.15326 14.0232 3.02576 14.5607 2.88993 15.0373C2.8266 15.2582 2.76076 15.4707 2.69576 15.6665H9.00326C10.7714 15.6665 12.4671 14.9641 13.7173 13.7139C14.9676 12.4636 15.6699 10.7679 15.6699 8.99984C15.6699 7.23173 14.9676 5.53603 13.7173 4.28579C12.4671 3.03555 10.7714 2.33317 9.00326 2.33317ZM0.734929 16.179L0.736596 16.174L0.746596 16.1507C0.80649 16.0044 0.86317 15.8569 0.916596 15.7082C1.02493 15.4123 1.16493 15.0098 1.28743 14.5807C1.40902 14.1729 1.49764 13.756 1.55243 13.334C1.57326 13.1482 1.57743 12.9948 1.56826 12.8773C1.56525 12.833 1.55885 12.789 1.5491 12.7457C1.54243 12.7165 1.5366 12.704 1.5366 12.704C0.964885 11.553 0.668207 10.285 0.669929 8.99984C0.669929 4.39734 4.40076 0.666504 9.00326 0.666504C13.6058 0.666504 17.3366 4.39734 17.3366 8.99984C17.3366 13.6023 13.6058 17.3332 9.00326 17.3332H1.50326C1.36614 17.3331 1.23115 17.2992 1.11026 17.2345C0.989375 17.1698 0.886321 17.0763 0.810242 16.9622C0.734163 16.8481 0.687409 16.717 0.674126 16.5806C0.660843 16.4441 0.681442 16.3064 0.734096 16.1798L0.734929 16.179ZM4.83326 7.74984C4.83326 7.52882 4.92106 7.31686 5.07734 7.16058C5.23362 7.0043 5.44558 6.9165 5.6666 6.9165H12.3333C12.5543 6.9165 12.7662 7.0043 12.9225 7.16058C13.0788 7.31686 13.1666 7.52882 13.1666 7.74984C13.1666 7.97085 13.0788 8.18281 12.9225 8.33909C12.7662 8.49537 12.5543 8.58317 12.3333 8.58317H5.6666C5.44558 8.58317 5.23362 8.49537 5.07734 8.33909C4.92106 8.18281 4.83326 7.97085 4.83326 7.74984ZM4.83326 11.0832C4.83326 10.8622 4.92106 10.6502 5.07734 10.4939C5.23362 10.3376 5.44558 10.2498 5.6666 10.2498H8.1666C8.38761 10.2498 8.59957 10.3376 8.75585 10.4939C8.91213 10.6502 8.99993 10.8622 8.99993 11.0832C8.99993 11.3042 8.91213 11.5161 8.75585 11.6724C8.59957 11.8287 8.38761 11.9165 8.1666 11.9165H5.6666C5.44558 11.9165 5.23362 11.8287 5.07734 11.6724C4.92106 11.5161 4.83326 11.3042 4.83326 11.0832Z" fill="#939393"/>
</svg>
