<svg width="18" height="16" viewBox="0 0 18 16" fill="none" xmlns="http://www.w3.org/2000/svg">
<path fill-rule="evenodd" clip-rule="evenodd" d="M5.91675 2.16644C3.85675 2.16644 2.33341 4.14477 2.33341 6.13311C2.33341 7.08477 2.70841 8.04311 3.34258 8.97727C3.97591 9.91061 4.83925 10.7748 5.73341 11.5189C6.51487 12.1645 7.34142 12.7535 8.20675 13.2814C8.53008 13.4798 8.80341 13.6339 9.00008 13.7398C9.19675 13.6339 9.47008 13.4798 9.79341 13.2814C10.6587 12.7535 11.4853 12.1645 12.2667 11.5189C13.1609 10.7748 14.0234 9.91061 14.6576 8.97727C15.2926 8.04311 15.6667 7.08561 15.6667 6.13311C15.6667 4.14477 14.1434 2.16644 12.0834 2.16644C10.8801 2.16644 10.1009 2.75811 9.63091 3.30227C9.55268 3.39291 9.45584 3.46562 9.34698 3.51546C9.23813 3.5653 9.11981 3.59109 9.00008 3.59109C8.88036 3.59109 8.76204 3.5653 8.65318 3.51546C8.54432 3.46562 8.44748 3.39291 8.36925 3.30227C7.89925 2.75811 7.12008 2.16644 5.91675 2.16644ZM0.666748 6.13311C0.666748 3.48811 2.69341 0.499773 5.91675 0.499773C7.27508 0.499773 8.29008 1.00977 9.00008 1.59561C9.86545 0.876346 10.9582 0.487966 12.0834 0.499773C15.3067 0.499773 17.3334 3.48811 17.3334 6.13311C17.3334 7.52727 16.7867 8.80811 16.0367 9.91394C15.2851 11.0206 14.2976 11.9973 13.3334 12.7998C12.4897 13.4973 11.5971 14.1337 10.6626 14.7039C10.2951 14.9289 9.98175 15.1056 9.75258 15.2273C9.65807 15.2782 9.5625 15.3271 9.46591 15.3739C9.40405 15.4033 9.34094 15.43 9.27675 15.4539C9.26091 15.4589 9.23508 15.4673 9.20175 15.4756C9.0695 15.5077 8.93149 15.5077 8.79925 15.4756C8.74761 15.4634 8.69631 15.4466 8.64758 15.4256C8.60935 15.4094 8.57156 15.3922 8.53425 15.3739C8.43767 15.3271 8.34209 15.2782 8.24758 15.2273C7.93931 15.0616 7.63585 14.887 7.33758 14.7039C6.40306 14.1337 5.51051 13.4973 4.66675 12.7998C3.70258 11.9964 2.71508 11.0206 1.96425 9.91394C1.21341 8.80894 0.666748 7.52727 0.666748 6.13311Z" fill="#939393"/>
</svg>
