<svg width="22" height="20" viewBox="0 0 22 20" fill="none" xmlns="http://www.w3.org/2000/svg">
<path fill-rule="evenodd" clip-rule="evenodd" d="M9.07 1.75C8.86419 1.75005 8.66158 1.80092 8.48015 1.89809C8.29873 1.99525 8.1441 2.13572 8.03 2.307L6.624 4.416C6.55552 4.51873 6.46273 4.60297 6.35388 4.66124C6.24502 4.7195 6.12347 4.74999 6 4.75H5C4.13805 4.75 3.3114 5.09241 2.7019 5.7019C2.09241 6.3114 1.75 7.13805 1.75 8V15C1.75 15.862 2.09241 16.6886 2.7019 17.2981C3.3114 17.9076 4.13805 18.25 5 18.25H17C17.862 18.25 18.6886 17.9076 19.2981 17.2981C19.9076 16.6886 20.25 15.862 20.25 15V8C20.25 7.13805 19.9076 6.3114 19.2981 5.7019C18.6886 5.09241 17.862 4.75 17 4.75H16C15.8765 4.74999 15.755 4.7195 15.6461 4.66124C15.5373 4.60297 15.4445 4.51873 15.376 4.416L13.97 2.306C13.8558 2.1349 13.7011 1.99464 13.5197 1.89765C13.3383 1.80066 13.1357 1.74994 12.93 1.75H9.07ZM6.782 1.475C7.03307 1.09825 7.37327 0.789313 7.7724 0.575615C8.17154 0.361917 8.61726 0.250069 9.07 0.25H12.93C13.85 0.25 14.708 0.71 15.218 1.475L16.4 3.25H17C18.2598 3.25 19.468 3.75045 20.3588 4.64124C21.2496 5.53204 21.75 6.74022 21.75 8V15C21.75 16.2598 21.2496 17.468 20.3588 18.3588C19.468 19.2496 18.2598 19.75 17 19.75H5C3.74022 19.75 2.53204 19.2496 1.64124 18.3588C0.750445 17.468 0.25 16.2598 0.25 15V8C0.25 6.74022 0.750445 5.53204 1.64124 4.64124C2.53204 3.75045 3.74022 3.25 5 3.25H5.599L6.782 1.475ZM11 9.25C10.4033 9.25 9.83097 9.48705 9.40901 9.90901C8.98705 10.331 8.75 10.9033 8.75 11.5C8.75 12.0967 8.98705 12.669 9.40901 13.091C9.83097 13.5129 10.4033 13.75 11 13.75C11.5967 13.75 12.169 13.5129 12.591 13.091C13.0129 12.669 13.25 12.0967 13.25 11.5C13.25 10.9033 13.0129 10.331 12.591 9.90901C12.169 9.48705 11.5967 9.25 11 9.25ZM7.25 11.5C7.25 10.5054 7.64509 9.55161 8.34835 8.84835C9.05161 8.14509 10.0054 7.75 11 7.75C11.9946 7.75 12.9484 8.14509 13.6517 8.84835C14.3549 9.55161 14.75 10.5054 14.75 11.5C14.75 12.4946 14.3549 13.4484 13.6517 14.1517C12.9484 14.8549 11.9946 15.25 11 15.25C10.0054 15.25 9.05161 14.8549 8.34835 14.1517C7.64509 13.4484 7.25 12.4946 7.25 11.5Z" fill="black"/>
<path d="M12 4C12 4.26522 11.8946 4.51957 11.7071 4.70711C11.5196 4.89464 11.2652 5 11 5C10.7348 5 10.4804 4.89464 10.2929 4.70711C10.1054 4.51957 10 4.26522 10 4C10 3.73478 10.1054 3.48043 10.2929 3.29289C10.4804 3.10536 10.7348 3 11 3C11.2652 3 11.5196 3.10536 11.7071 3.29289C11.8946 3.48043 12 3.73478 12 4Z" fill="black"/>
</svg>
