<svg width="14" height="16" viewBox="0 0 14 16" fill="none" xmlns="http://www.w3.org/2000/svg">
<path fill-rule="evenodd" clip-rule="evenodd" d="M0.25 3.44597C0.25 1.33497 2.531 0.0109725 4.364 1.05897L12.334 5.61197C14.181 6.66797 14.181 9.33197 12.334 10.388L4.364 14.941C2.531 15.989 0.25 14.665 0.25 12.554V3.44597ZM3.62 2.36097C3.42993 2.2524 3.21467 2.19564 2.99578 2.19638C2.77688 2.19712 2.56202 2.25533 2.37268 2.36519C2.18334 2.47504 2.02618 2.63269 1.9169 2.82236C1.80762 3.01203 1.75007 3.22707 1.75 3.44597V12.554C1.75007 12.7729 1.80762 12.9879 1.9169 13.1776C2.02618 13.3673 2.18334 13.5249 2.37268 13.6348C2.56202 13.7446 2.77688 13.8028 2.99578 13.8036C3.21467 13.8043 3.42993 13.7475 3.62 13.639L11.589 9.08497C12.429 8.60497 12.429 7.39497 11.589 6.91497L3.62 2.36097Z" fill="black"/>
</svg>
