<svg width="18" height="14" viewBox="0 0 18 14" fill="none" xmlns="http://www.w3.org/2000/svg">
<path d="M16.1559 8.35817C14.5393 10.059 11.9001 12.2082 9.0001 12.2082V13.4582C12.4593 13.4582 15.4184 10.9482 17.0618 9.21984L16.1559 8.35817ZM9.0001 12.2082C6.1001 12.2082 3.46094 10.059 1.84427 8.35817L0.938435 9.21984C2.58177 10.9482 5.54177 13.4582 9.0001 13.4582V12.2082ZM1.84427 5.6415C3.46094 3.94067 6.1001 1.7915 9.0001 1.7915V0.541504C5.54094 0.541504 2.58177 3.0515 0.938435 4.77984L1.84427 5.6415ZM9.0001 1.7915C11.9001 1.7915 14.5393 3.94067 16.1559 5.6415L17.0618 4.77984C15.4184 3.0515 12.4584 0.541504 9.0001 0.541504V1.7915ZM1.84427 8.35817C1.48999 7.99478 1.2917 7.50735 1.2917 6.99984C1.2917 6.49233 1.48999 6.0049 1.84427 5.6415L0.938435 4.77984C0.363074 5.37565 0.0415039 6.17157 0.0415039 6.99984C0.0415039 7.82811 0.363074 8.62403 0.938435 9.21984L1.84427 8.35817ZM17.0618 9.21984C17.6371 8.62403 17.9579 7.82811 17.9579 6.99984C17.9579 6.17157 17.6371 5.37565 17.0618 4.77984L16.1559 5.6415C16.8926 6.4165 16.8926 7.58317 16.1559 8.35817L17.0618 9.21984ZM10.8751 6.99984C10.8751 7.49712 10.6776 7.97403 10.3259 8.32566C9.9743 8.67729 9.49738 8.87484 9.0001 8.87484V10.1248C9.8289 10.1248 10.6238 9.7956 11.2098 9.20955C11.7959 8.6235 12.1251 7.82864 12.1251 6.99984H10.8751ZM9.0001 8.87484C8.50282 8.87484 8.02591 8.67729 7.67428 8.32566C7.32265 7.97403 7.1251 7.49712 7.1251 6.99984H5.8751C5.8751 7.82864 6.20434 8.6235 6.79039 9.20955C7.37644 9.7956 8.1713 10.1248 9.0001 10.1248V8.87484ZM7.1251 6.99984C7.1251 6.50256 7.32265 6.02564 7.67428 5.67401C8.02591 5.32238 8.50282 5.12484 9.0001 5.12484V3.87484C8.1713 3.87484 7.37644 4.20408 6.79039 4.79013C6.20434 5.37618 5.8751 6.17104 5.8751 6.99984H7.1251ZM9.0001 5.12484C9.49738 5.12484 9.9743 5.32238 10.3259 5.67401C10.6776 6.02564 10.8751 6.50256 10.8751 6.99984H12.1251C12.1251 6.17104 11.7959 5.37618 11.2098 4.79013C10.6238 4.20408 9.8289 3.87484 9.0001 3.87484V5.12484Z" fill="#939393"/>
</svg>
